<svg width="56" height="56" viewBox="0 0 56 56" fill="none" xmlns="http://www.w3.org/2000/svg">
<g id="Group 20">
<circle id="Oval" cx="28" cy="28" r="28" fill="url(#paint0_linear_0_443)"/>
<path id="Mask" fill-rule="evenodd" clip-rule="evenodd" d="M26 28C24.9 28 24 28.9 24 30C24 31.1 24.9 32 26 32C27.1 32 28 31.1 28 30C28 28.9 27.1 28 26 28ZM22 24C20.9 24 20 24.9 20 26C20 27.1 20.9 28 22 28C23.1 28 24 27.1 24 26C24 24.9 23.1 24 22 24ZM22 32C20.9 32 20 32.9 20 34C20 35.1 20.9 36 22 36C23.1 36 24 35.1 24 34C24 32.9 23.1 32 22 32ZM34 24C35.1 24 36 23.1 36 22C36 20.9 35.1 20 34 20C32.9 20 32 20.9 32 22C32 23.1 32.9 24 34 24ZM30 32C28.9 32 28 32.9 28 34C28 35.1 28.9 36 30 36C31.1 36 32 35.1 32 34C32 32.9 31.1 32 30 32ZM34 28C32.9 28 32 28.9 32 30C32 31.1 32.9 32 34 32C35.1 32 36 31.1 36 30C36 28.9 35.1 28 34 28ZM30 24C28.9 24 28 24.9 28 26C28 27.1 28.9 28 30 28C31.1 28 32 27.1 32 26C32 24.9 31.1 24 30 24ZM26 20C24.9 20 24 20.9 24 22C24 23.1 24.9 24 26 24C27.1 24 28 23.1 28 22C28 20.9 27.1 20 26 20Z" fill="white"/>
<mask id="mask0_0_443" style="mask-type:alpha" maskUnits="userSpaceOnUse" x="20" y="20" width="16" height="16">
<path id="Mask_2" fill-rule="evenodd" clip-rule="evenodd" d="M26 28C24.9 28 24 28.9 24 30C24 31.1 24.9 32 26 32C27.1 32 28 31.1 28 30C28 28.9 27.1 28 26 28ZM22 24C20.9 24 20 24.9 20 26C20 27.1 20.9 28 22 28C23.1 28 24 27.1 24 26C24 24.9 23.1 24 22 24ZM22 32C20.9 32 20 32.9 20 34C20 35.1 20.9 36 22 36C23.1 36 24 35.1 24 34C24 32.9 23.1 32 22 32ZM34 24C35.1 24 36 23.1 36 22C36 20.9 35.1 20 34 20C32.9 20 32 20.9 32 22C32 23.1 32.9 24 34 24ZM30 32C28.9 32 28 32.9 28 34C28 35.1 28.9 36 30 36C31.1 36 32 35.1 32 34C32 32.9 31.1 32 30 32ZM34 28C32.9 28 32 28.9 32 30C32 31.1 32.9 32 34 32C35.1 32 36 31.1 36 30C36 28.9 35.1 28 34 28ZM30 24C28.9 24 28 24.9 28 26C28 27.1 28.9 28 30 28C31.1 28 32 27.1 32 26C32 24.9 31.1 24 30 24ZM26 20C24.9 20 24 20.9 24 22C24 23.1 24.9 24 26 24C27.1 24 28 23.1 28 22C28 20.9 27.1 20 26 20Z" fill="white"/>
</mask>
<g mask="url(#mask0_0_443)">
</g>
</g>
<defs>
<linearGradient id="paint0_linear_0_443" x1="0" y1="0" x2="0" y2="56" gradientUnits="userSpaceOnUse">
<stop stop-color="#FF6F48"/>
<stop offset="1" stop-color="#F02AA6"/>
</linearGradient>
</defs>
</svg>
